name ./resultDataOpenSim/trcMotMarkerGrf/sub06/grf-01-01.mot
datacolumns 19
datarows 20
range 0.94400000 1.02000000
endheader

                time	     ground_force_vx	     ground_force_vy	     ground_force_vz	     ground_force_px	     ground_force_py	     ground_force_pz	   l_ground_force_vx	   l_ground_force_vy	   l_ground_force_vz	   l_ground_force_px	   l_ground_force_py	   l_ground_force_pz	     ground_torque_x	     ground_torque_y	     ground_torque_z	   l_ground_torque_x	   l_ground_torque_y	   l_ground_torque_z	
          0.94400000	          0.00000000	          0.00000000	          0.00000000	          0.00000000	          0.00000000	          0.00000000	        118.63898816	        698.73055045	         52.26840315	          0.02213590	          0.00000000	         -0.05150790	          0.00000000	          0.00000000	          0.00000000	          0.00000000	         -3.09669359	          0.00000000	
          0.94800000	          0.00000000	          0.00000000	          0.00000000	          0.00000000	          0.00000000	          0.00000000	        125.49497330	        712.92380664	         52.74809701	          0.02266094	          0.00000000	         -0.05135619	          0.00000000	          0.00000000	          0.00000000	          0.00000000	         -3.20722740	          0.00000000	
          0.95200000	          0.00000000	          0.00000000	          0.00000000	          0.00000000	          0.00000000	          0.00000000	        132.70597231	        725.09608174	         52.77392176	          0.02326322	          0.00000000	         -0.05111713	          0.00000000	          0.00000000	          0.00000000	          0.00000000	         -3.32990969	          0.00000000	
          0.95600000	          0.00000000	          0.00000000	          0.00000000	          0.00000000	          0.00000000	          0.00000000	        140.20178965	        735.06533637	         52.50081660	          0.02395125	          0.00000000	         -0.05080530	          0.00000000	          0.00000000	          0.00000000	          0.00000000	         -3.45208206	          0.00000000	
          0.96000000	          0.00000000	          0.00000000	          0.00000000	          0.00000000	          0.00000000	          0.00000000	        147.85556962	        742.71214559	         52.05007658	          0.02471144	          0.00000000	         -0.05044841	          0.00000000	          0.00000000	          0.00000000	          0.00000000	         -3.56142692	          0.00000000	
          0.96400000	          0.00000000	          0.00000000	          0.00000000	          0.00000000	          0.00000000	          0.00000000	        155.51461328	        747.96783386	         51.49477592	          0.02550574	          0.00000000	         -0.05007872	          0.00000000	          0.00000000	          0.00000000	          0.00000000	         -3.64727579	          0.00000000	
          0.96800000	          0.00000000	          0.00000000	          0.00000000	          0.00000000	          0.00000000	          0.00000000	        163.04277776	        750.77636350	         50.88194850	          0.02629541	          0.00000000	         -0.04972746	          0.00000000	          0.00000000	          0.00000000	          0.00000000	         -3.70156590	          0.00000000	
          0.97200000	          0.00000000	          0.00000000	          0.00000000	          0.00000000	          0.00000000	          0.00000000	        170.33524242	        751.08477442	         50.25074696	          0.02706045	          0.00000000	         -0.04941441	          0.00000000	          0.00000000	          0.00000000	          0.00000000	         -3.71941125	          0.00000000	
          0.97600000	          0.00000000	          0.00000000	          0.00000000	          0.00000000	          0.00000000	          0.00000000	        177.30768488	        748.86400864	         49.62303263	          0.02779372	          0.00000000	         -0.04914515	          0.00000000	          0.00000000	          0.00000000	          0.00000000	         -3.69923823	          0.00000000	
          0.98000000	          0.00000000	          0.00000000	          0.00000000	          0.00000000	          0.00000000	          0.00000000	        183.88627299	        744.12990228	         48.98995709	          0.02850645	          0.00000000	         -0.04891052	          0.00000000	          0.00000000	          0.00000000	          0.00000000	         -3.64240967	          0.00000000	
          0.98400000	          0.00000000	          0.00000000	          0.00000000	          0.00000000	          0.00000000	          0.00000000	        190.01110166	        736.94241341	         48.31723357	          0.02922841	          0.00000000	         -0.04869501	          0.00000000	          0.00000000	          0.00000000	          0.00000000	         -3.55237613	          0.00000000	
          0.98800000	          0.00000000	          0.00000000	          0.00000000	          0.00000000	          0.00000000	          0.00000000	        195.64008938	        727.38513173	         47.56947640	          0.02998357	          0.00000000	         -0.04849060	          0.00000000	          0.00000000	          0.00000000	          0.00000000	         -3.43357544	          0.00000000	
          0.99200000	          0.00000000	          0.00000000	          0.00000000	          0.00000000	          0.00000000	          0.00000000	        200.73712508	        715.55599154	         46.73941792	          0.03077179	          0.00000000	         -0.04829031	          0.00000000	          0.00000000	          0.00000000	          0.00000000	         -3.29039515	          0.00000000	
          0.99600000	          0.00000000	          0.00000000	          0.00000000	          0.00000000	          0.00000000	          0.00000000	        205.25631038	        701.54948300	         45.85600129	          0.03158065	          0.00000000	         -0.04807014	          0.00000000	          0.00000000	          0.00000000	          0.00000000	         -3.12647742	          0.00000000	
          1.00000000	          0.00000000	          0.00000000	          0.00000000	          0.00000000	          0.00000000	          0.00000000	        209.13759191	        685.36735563	         44.95756983	          0.03237638	          0.00000000	         -0.04782051	          0.00000000	          0.00000000	          0.00000000	          0.00000000	         -2.94452619	          0.00000000	
          1.00400000	          0.00000000	          0.00000000	          0.00000000	          0.00000000	          0.00000000	          0.00000000	        212.30504249	        666.83935425	         44.05041831	          0.03315739	          0.00000000	         -0.04755379	          0.00000000	          0.00000000	          0.00000000	          0.00000000	         -2.74658817	          0.00000000	
          1.00800000	          0.00000000	          0.00000000	          0.00000000	          0.00000000	          0.00000000	          0.00000000	        214.64803051	        645.67480474	         43.08985974	          0.03395657	          0.00000000	         -0.04727703	          0.00000000	          0.00000000	          0.00000000	          0.00000000	         -2.53455963	          0.00000000	
          1.01200000	         -1.32728104	          7.94099143	          2.73052644	          0.66554146	          0.00000000	          0.07927399	        215.97873532	        621.53273716	         41.99346035	          0.03479463	          0.00000000	         -0.04697656	          0.00000000	          0.44671622	          0.00000000	          0.00000000	         -2.31059546	          0.00000000	
          1.01600000	        -12.63709862	        143.69645937	          9.94271256	          0.67092557	          0.00000000	          0.07771003	        215.99423602	        593.98930763	         40.66110196	          0.03569163	          0.00000000	         -0.04665402	          0.00000000	          0.31859750	          0.00000000	          0.00000000	         -2.07729532	          0.00000000	
          1.02000000	        -24.38891506	        266.08385570	         16.96414896	          0.67571788	          0.00000000	          0.07637177	        214.27732542	        562.53190120	         38.98709514	          0.03663812	          0.00000000	         -0.04634625	          0.00000000	          0.14968560	          0.00000000	          0.00000000	         -1.83782929	          0.00000000	
